<svg id="Layer_1" data-name="Layer 1" xmlns="http://www.w3.org/2000/svg" viewBox="0 0 316.03 529.14"><defs><style>.cls-1{fill:none;stroke:#272727;stroke-miterlimit:10;stroke-width:6px;}.cls-2{fill:#272727;}</style></defs><title>logoBack</title><path class="cls-1" d="M165.46,395.67c96.3,71,209.48,9.73,219.92-87.47a134.32,134.32,0,0,0,.67-19.17l.27.24-16.95-187c-.6-6.6-10-7.17-11.42-.68l-11.31,53c-3.6,16.89-21.92,26.37-37.61,19.16a132.18,132.18,0,0,0-41.16-11.31C170.66,152,86.73,249.55,135.69,358.73A93.44,93.44,0,0,0,165.46,395.67Zm45.82-165.79c81.85-42.7,155.26,48.37,96.15,119.28a36.78,36.78,0,0,1-11.25,9.08C214.33,400.94,140.92,309.86,200,239A36.89,36.89,0,0,1,211.28,229.88Z" transform="translate(-73.96 -94)"/><path class="cls-1" d="M145.34,481.9a31,31,0,0,0-32.7,21,34.21,34.21,0,0,0-2.5,9.69l-9.58,89.14a6.16,6.16,0,0,0,11.52,3.63L138.78,557a27.77,27.77,0,0,1,27.28-14.2L299.94,557.2a58.36,58.36,0,0,0,64.26-51.8h0Z" transform="translate(-73.96 -94)"/><path class="cls-2" d="M138.9,410.21c96.3,71,209.47,9.73,219.91-87.47a131.45,131.45,0,0,0,.67-19.17l.28.24-17-187c-.59-6.6-10-7.17-11.41-.68l-11.31,53c-3.61,16.89-21.93,26.37-37.62,19.16A132,132,0,0,0,241.3,177c-97.2-10.44-181.13,87.14-132.17,196.33A93.39,93.39,0,0,0,138.9,410.21Zm45.82-165.79c81.84-42.7,155.25,48.37,96.15,119.28a36.81,36.81,0,0,1-11.26,9.08c-81.84,42.7-155.25-48.38-96.15-119.29A37,37,0,0,1,184.72,244.42Z" transform="translate(-73.96 -94)"/><path class="cls-2" d="M118.78,496.44a31,31,0,0,0-32.7,21,34.22,34.22,0,0,0-2.51,9.69L74,616.31c-.72,6.68,8.27,9.52,11.52,3.63l26.69-48.38a27.8,27.8,0,0,1,27.29-14.2l133.87,14.38a58.38,58.38,0,0,0,64.27-51.8h0Z" transform="translate(-73.96 -94)"/></svg>